<?xml version="1.0" encoding="UTF-8"?>
<svg xmlns="http://www.w3.org/2000/svg" viewBox="0 0 873.82 711.08">
  <defs>
    <style>
      .cls-1 {
        fill: #55aced;
      }

      .cls-2 {
        stroke: #000;
      }

      .cls-2, .cls-3 {
        stroke-miterlimit: 10;
      }

      .cls-3 {
        fill: #fff;
        stroke: #fff;
      }
    </style>
  </defs>
  <g id="twitter-bird">
    <path id="twitter-bird-2" data-name="twitter-bird" class="cls-1" d="M0,630.52c98.09,9.86,185.79-14.26,264.33-73.41-82.08-7.2-137.57-48.47-167.32-125.8,27.6,4.99,53.88,4.28,80.79-2.69-55.42-13.26-96.58-44.12-122.98-93.87-13.82-26.04-19.97-54.09-20.16-84.68,25.48,13.66,51.76,21.29,80.69,22.46-45.89-33.05-72.55-76.66-78.17-132.27-3.84-37.93,4.27-73.54,23.31-106.96,97.07,114.33,219.7,177.15,369.7,187.53-.94-5.87-1.83-10.83-2.53-15.82-5.61-40.36,1.27-78.52,21.58-113.8,26.69-46.37,66.47-75.96,118.81-86.98,54.31-11.43,103.98,.46,148.15,34.22,6.37,4.87,12.05,10.66,17.93,16.16,1.64,1.54,2.99,2.1,5.37,1.61,38.37-7.92,74.42-21.85,108.29-41.51,.54-.32,1.11-.6,2.54-1.38-6.56,21.05-16.52,39.34-29.55,55.99-13.12,16.77-28.82,30.73-46.91,42.01l.22,.98c6.62-1.07,13.27-2.01,19.86-3.23,6.77-1.26,13.54-2.61,20.23-4.25,6.81-1.67,13.57-3.62,20.27-5.68,6.59-2.02,13.14-4.2,19.61-6.57,6.44-2.36,12.77-5.04,19.75-7.06-1.58,2.33-3.11,4.7-4.74,6.99-22.72,31.93-49.79,59.61-81.36,82.85-2.12,1.56-2.96,3.19-2.91,5.7,.24,11.6,.88,23.22,.48,34.8-1.56,44.61-8.88,88.29-21.82,131.03-19.17,63.32-48.7,121.31-89.29,173.56-47.4,61.01-105.66,108.72-175.45,142.07-42.68,20.4-87.5,34.04-134.21,41.54-26.92,4.32-53.98,6.48-81.24,6.96-60.8,1.06-119.82-8.5-177.18-28.55-35.98-12.57-70.05-29.12-102.33-49.37-1.06-.66-2.06-1.4-3.77-2.57Z"/>
  </g>
  <g id="googly-eye">
    <circle id="googly-eye-sclera" class="cls-3" cx="637.66" cy="123.03" r="86.5"/>
    <circle id="googly-eye-pupil" class="cls-2" cx="667.66" cy="112.03" r="50.5"/>
  </g>
</svg>